<svg xmlns="http://www.w3.org/2000/svg" viewBox="0 0 1280 320" role="img" aria-label="Orogen horizontal lockup, dark">
  <title>Orogen horizontal lockup (dark background)</title>
  <desc>Nested-strata mark on the left, Orogen wordmark to the right. For use on crust-950 backgrounds.</desc>
  <rect width="1280" height="320" fill="#0b0d10"/>
  <g transform="translate(64,32) scale(2)">
    <path d="M24 38C40 38 50 29 64 26C78 29 88 38 104 38" fill="none" stroke="#F5F7F8" stroke-width="10" stroke-linecap="round" stroke-linejoin="round"/>
    <path d="M20 56C38 56 49 47 64 44C79 47 90 56 108 56" fill="none" stroke="#F5F7F8" stroke-width="10" stroke-linecap="round" stroke-linejoin="round"/>
    <path d="M18 74C37 74 49 64 64 61C79 64 91 74 110 74" fill="none" stroke="#F5F7F8" stroke-width="10" stroke-linecap="round" stroke-linejoin="round"/>
    <path d="M24 92C41 92 52 82 64 78C76 82 87 92 104 92" fill="none" stroke="#F5F7F8" stroke-width="10" stroke-linecap="round" stroke-linejoin="round"/>
    <path d="M64 28V92" stroke="#2AB67D" stroke-width="8" stroke-linecap="round"/>
    <circle cx="64" cy="28" r="6" fill="#2AB67D"/>
    <circle cx="64" cy="61" r="5" fill="#2AB67D"/>
    <circle cx="64" cy="92" r="6" fill="#2AB67D"/>
  </g>
  <g font-family="Inter, 'Inter Variable', ui-sans-serif, system-ui, -apple-system, 'Segoe UI', Roboto, sans-serif" font-weight="700" font-size="148" letter-spacing="-1.5">
    <text x="384" y="208" fill="#e9ebef">Orogen</text>
  </g>
</svg>
