<svg xmlns="http://www.w3.org/2000/svg" viewBox="0 0 1280 320" role="img" aria-label="Orogen horizontal lockup, light">
  <title>Orogen horizontal lockup (light background)</title>
  <desc>Nested hexagonal strata mark on the left, Orogen wordmark to the right. For use on crust-100 and lighter backgrounds.</desc>
  <rect width="1280" height="320" fill="#e9ebef"/>
  <svg x="64" y="32" width="198.8" height="256" viewBox="0 0 79.165192 101.94904"><g transform="translate(-140.30668,-95.12026)">
<path fill="#105354" d="m 140.30668,152.49974 0.12196,6.43268 c 0.13613,7.19949 0.29514,8.1169 2.04948,11.80134 1.20987,2.54096 2.90271,4.84472 4.53978,6.17896 0.63196,0.51505 4.18485,2.90108 7.89564,5.30251 3.71078,2.40144 9.96313,6.45078 13.89424,8.99842 8.20026,5.31434 8.51739,5.49398 10.15701,5.74797 1.57304,0.24367 3.0685,0.0727 4.39146,-0.50178 0.58208,-0.25274 7.42818,-4.68574 15.21354,-9.85108 14.79381,-9.81523 15.92348,-10.68856 17.93534,-13.86375 2.35849,-3.72224 2.96674,-6.67125 2.96674,-14.38672 v -5.83788 l -2.05052,1.42213 c -1.12778,0.78227 -9.64964,6.5002 -18.93734,12.7062 -16.39498,10.95506 -16.92378,11.28355 -18.15652,11.28355 -1.16285,0 -1.62322,-0.22969 -5.47046,-2.728 -15.9774,-10.37535 -20.38772,-13.26185 -27.04848,-17.70279 z m 73.00691,11.77757 c 0.0578,0.0578 -0.20237,1.01967 -0.57774,2.13786 -0.75977,2.26332 -2.00232,4.34257 -3.35121,5.6074 -1.51004,1.41595 -27.52889,18.60972 -28.16159,18.60972 -0.18533,0 -0.49557,0.0547 -0.68937,0.12144 -0.73979,0.25462 -2.46153,-0.72176 -10.67118,-6.05131 -4.65667,-3.02302 -10.53524,-6.82503 -13.06329,-8.44858 -5.59419,-3.59269 -7.31757,-5.10482 -8.56226,-7.5122 -0.81078,-1.56813 -1.69316,-4.23153 -1.47123,-4.44107 0.0429,-0.0405 6.44787,4.02706 14.23324,9.03924 17.86356,11.50048 17.12911,11.08034 19.31458,11.05514 1.21203,-0.014 2.04484,-0.18806 2.82102,-0.58912 1.19278,-0.61634 10.27054,-6.51236 22.42395,-14.565 4.20745,-2.78778 7.69728,-5.02132 7.75508,-4.96352 z"/>
<path fill="#105354" d="m 219.35767,140.36146 c -0.0627,0 -3.48575,2.2195 -7.60677,4.932 -4.12102,2.7125 -11.12397,7.31586 -15.56236,10.22986 -4.43838,2.91399 -8.52644,5.7249 -9.08472,6.24665 -1.70759,1.5959 -2.37094,3.20449 -2.5063,6.07818 -0.0968,2.05599 -0.0542,2.44703 0.24701,2.2717 0.20012,-0.11648 1.7969,-1.18713 3.54862,-2.37918 3.45283,-2.34964 20.52176,-13.51741 27.04383,-17.69401 l 4.03489,-2.58383 v -3.55068 c 0,-1.95292 -0.0515,-3.55069 -0.1142,-3.55069 z"/>
<path fill="#105354" d="m 140.51752,140.36146 c -0.0858,0 -0.15606,1.58891 -0.15606,3.53105 v 3.53105 l 6.81302,4.32273 c 8.45704,5.3657 22.11328,14.21499 25.46614,16.50184 1.38245,0.94291 2.60284,1.72164 2.71198,1.73064 0.19108,0.0157 0.30828,-2.1779 0.20413,-3.82044 -0.0727,-1.14601 -0.85163,-2.78244 -1.88568,-3.961 -0.97513,-1.11139 -6.76524,-5.02961 -18.36063,-12.42508 -4.07458,-2.59874 -9.03466,-5.77919 -11.02259,-7.06778 -1.98793,-1.2886 -3.68461,-2.34301 -3.77031,-2.34301 z"/>
<path fill="#282827" d="m 180.35437,120.04435 c -0.46233,-0.012 -1.02351,0.0444 -1.41284,0.15193 -1.41414,0.39047 -14.56082,8.89168 -15.6993,10.15184 -1.6958,1.87704 -1.7156,2.00155 -1.7048,10.73267 l 0.0103,7.87963 2.96675,1.90169 2.96674,1.90221 0.13229,-8.8284 c 0.15526,-10.36116 -0.13592,-9.42306 3.71605,-11.98532 5.98929,-3.98396 7.99299,-5.17126 8.72609,-5.17126 0.70873,0 4.5163,2.23407 9.67796,5.67769 2.8409,1.89536 2.75073,1.51055 2.75073,11.71453 0,4.74382 0.0711,8.62531 0.15813,8.62531 0.087,0 1.45625,-0.84657 3.04271,-1.88102 l 2.88458,-1.8805 -0.006,-7.97523 c -0.006,-8.73455 -0.0468,-8.99699 -1.69085,-10.94455 -0.95046,-1.1259 -14.94241,-9.84782 -16.09928,-10.03556 -0.12214,-0.0198 -0.26499,-0.0317 -0.41909,-0.0357 z"/>
<path fill="#282827" d="m 180.77708,107.48026 c -0.25751,-0.0125 -0.49949,0.0222 -0.86196,0.0295 -1.59264,0.032 -2.01404,0.24144 -7.33961,3.64732 -2.65636,1.69884 -7.80624,4.99205 -11.44426,7.31842 -3.63802,2.32637 -7.06692,4.66061 -7.61969,5.18676 -0.55277,0.52616 -1.32507,1.61138 -1.71669,2.41174 -0.71158,1.45419 -0.71239,1.46039 -0.81029,8.7328 l -0.0977,7.27707 2.87321,1.86087 2.87321,1.86087 0.13436,-7.94732 c 0.14562,-8.60898 0.21545,-9.04028 1.69189,-10.5022 0.91895,-0.90992 19.26715,-12.62115 20.58479,-13.13873 0.88863,-0.34911 1.11897,-0.34941 1.99678,-0.002 0.88847,0.35156 17.0883,10.28727 19.81791,12.15481 0.64773,0.44317 1.32613,1.22206 1.65364,1.8986 0.52763,1.08999 0.55501,1.55874 0.55501,9.39839 0,4.53797 0.0853,8.25066 0.18965,8.25066 0.1044,0 1.41063,-0.80368 2.90215,-1.78594 l 2.71146,-1.78594 -0.0574,-7.80521 -0.0574,-7.8052 -0.70487,-1.32292 c -0.38761,-0.72761 -1.16151,-1.75684 -1.71979,-2.2872 -0.55827,-0.53036 -5.18211,-3.55421 -10.27534,-6.71949 -12.75676,-7.92793 -14.16329,-8.8713 -15.27917,-8.92555 z"/>
<path fill="#282827" d="m 180.10839,95.120292 c -1.34468,0.002 -2.13083,0.16629 -3.2179,0.672311 -1.47517,0.686674 -10.71709,6.351587 -21.05091,12.903087 -3.20146,2.02968 -6.70757,4.23993 -7.79125,4.91185 -2.86689,1.77757 -4.80764,3.67976 -5.92677,5.80946 -1.49523,2.84542 -1.75363,4.418 -1.74563,10.62571 l 0.007,5.42396 2.8329,1.78438 h 5.2e-4 c 1.55819,0.9813 2.92221,1.78514 3.03134,1.78594 0.10914,7.9e-4 0.19844,-3.19836 0.19844,-7.10913 0,-7.68534 0.10207,-8.39449 1.49551,-10.40815 0.75076,-1.08492 1.56364,-1.63302 15.8347,-10.66963 16.46371,-10.42503 15.9331,-10.15285 17.84852,-9.15448 0.99731,0.51983 10.05515,6.05952 20.91345,12.79095 11.68006,7.24087 10.88371,6.01527 11.09907,17.08578 l 0.14572,7.48275 2.83807,-1.79421 2.83807,-1.7942 0.003,-5.95313 c 0.003,-6.39242 -0.16496,-7.59196 -1.42472,-10.16682 -1.40119,-2.86392 -3.03621,-4.25075 -10.40246,-8.82633 -11.09365,-6.89086 -21.21534,-13.012703 -23.55825,-14.24823 -1.95917,-1.03316 -2.37633,-1.154168 -3.96875,-1.151868 z"/>
</g></svg>
  <g font-family="Inter, 'Inter Variable', ui-sans-serif, system-ui, -apple-system, 'Segoe UI', Roboto, sans-serif" font-weight="600" font-size="148" letter-spacing="-1.48">
    <text x="318" y="210" fill="#151A1E">Orogen</text>
  </g>
</svg>
